<svg id="santaContainer" version="1.1" xmlns="http://www.w3.org/2000/svg" xmlns:xlink="http://www.w3.org/1999/xlink" x="0px" y="0px" width="166px"
	 height="240px" viewBox="0 0 166 240" style="enable-background:new 0 0 166 240;" xml:space="preserve">
<style type="text/css">
	.st0{fill:#E6D7C0;}
	.st1{fill:#F3CBAE;}
	.st2{fill:#484845;}
	.st3{fill:#FFFFFF;}
	.st4{fill:#E5E5E5;}
	.st5{fill:#E04C49;}
	.st6{fill:#D34646;}
	.st7{fill:#DD705E;}
	.st8{fill:#CB5F47;}
	.st9{fill:#EF6452;}
	.st10{fill:#F1F1F2;}
	.st11{fill:#DDB499;}
	.st12{fill:#D4CDCD;}
	.st13{fill:#EDEDEE;}
</style>
<g id="Layer_1">
</g>
<g id="bg">
	
</g>
<g id="head">
	<circle id="XMLID_75_" class="st1" cx="80.4" cy="116.1" r="62.5"/>
</g>
<g id="eyes">
	<g id="XMLID_8_">
		<circle id="XMLID_21_" class="st2" cx="64" cy="116.1" r="6.3"/>
		<circle id="XMLID_17_" class="st2" cx="97.9" cy="116.1" r="6.3"/>
	</g>
</g>
<g id="beard">
	<path id="XMLID_9_" class="st3" d="M142.9,116.4c0-15.5-5.7-29.7-15.1-40.7c5.6,22.4,1.2,46.7-13.2,66
		c-9.8-6.5-21.6-10.3-34.3-10.3c-12.7,0-24.4,3.8-34.3,10.3c-14.3-19.3-18.7-43.6-13.2-66c-9.4,10.9-15.1,25.1-15.1,40.7
		c0,14.7,5.1,28.1,13.5,38.8c1.8,2.2,3.7,4.2,5.7,6.2l0,0c9.6,9,42.2,63.9,43.3,72.8c0,0,25.2-56,43.4-72.8l-0.1,0c2-2,4-4,5.7-6.2
		c0,0,0,0,0,0C137.8,144.5,142.9,131,142.9,116.4z"/>
</g>
<g id="mouth">
	<g id="XMLID_3_">
		<path id="XMLID_68_" class="st4" d="M66.6,147.4c6.3,0,11.6-2.8,13.8-6.7c2.2,3.9,7.5,6.7,13.8,6.7c0.3,0,0.5,0,0.8-0.1
			c0.1,0.3,0.1,0.7,0.2,1.1c0-0.3,0.1-0.7,0.1-1c0-0.7-0.1-1.4-0.3-2.1c-0.3,0-0.5,0.1-0.8,0.1c-6.3,0-11.6-2.8-13.8-6.7
			c-2.2,3.9-7.5,6.7-13.8,6.7c-0.3,0-0.5,0-0.8-0.1c-0.2,0.7-0.3,1.4-0.3,2.1c0,0.3,0.1,0.7,0.1,1c0-0.4,0.1-0.7,0.2-1.1
			C66,147.4,66.3,147.4,66.6,147.4z"/>
		<path id="XMLID_66_" class="st2" d="M80.4,149.2c5.5,0,10.2,2.1,12.8,5.3c1.3-1.6,2.1-3.4,2.1-5.4c0-0.7-0.1-1.4-0.3-2.1
			c-0.3,0-0.5,0.1-0.8,0.1c-6.3,0-11.6-2.8-13.8-6.7c-2.2,3.9-7.5,6.7-13.8,6.7c-0.3,0-0.5,0-0.8-0.1c-0.2,0.7-0.3,1.4-0.3,2.1
			c0,2,0.8,3.8,2.1,5.4C70.2,151.3,74.9,149.2,80.4,149.2z"/>
		<path id="XMLID_6_" class="st5" d="M80.4,150c-5.2,0-9.8,1.9-12.5,4.9c2.7,2.9,7.2,4.9,12.5,4.9s9.8-1.9,12.5-4.9
			C90.2,151.9,85.6,150,80.4,150z"/>
		<path id="XMLID_4_" class="st6" d="M80.4,151.1c5.2,0,9.8,0.8,12.5,3.7c0.1-0.1,0.2-0.3,0.3-0.4c-2.6-3.1-7.3-5.3-12.8-5.3
			c-5.5,0-10.2,2.1-12.8,5.3c0.1,0.1,0.2,0.3,0.3,0.4C70.6,151.9,75.2,151.1,80.4,151.1z"/>
	</g>
</g>
<g id="nose">
	<g id="XMLID_14_">
		<path id="XMLID_20_" class="st7" d="M81,121.2c-0.2,0-0.4-0.1-0.6-0.1c-2.3,0-4.2,3.1-4.2,6.8c0,0.4,0,0.8,0.1,1.2
			c-1.2,0.8-1.9,1.8-1.9,3.1c0,2.1,2.3,3.9,5.3,4.2c0-0.7,0-1.5,0-2.2C79.6,129.2,80.1,124.8,81,121.2z"/>
		<path id="XMLID_19_" class="st8" d="M86.4,132.1c0-1.2-0.7-2.3-1.9-3.1c0-0.4,0.1-0.8,0.1-1.2c0-3.4-1.6-6.3-3.6-6.7
			c-0.9,3.6-1.4,8-1.4,12.9c0,0.8,0,1.5,0,2.2c0.3,0,0.5,0.1,0.8,0.1C83.7,136.3,86.4,134.5,86.4,132.1z"/>
	</g>
</g>
<g id="hat">
	<path id="XMLID_79_" class="st9" d="M26.3,67.6c1.6-3,3.7-5.8,6.1-8.2c1.4-1.4,2.8-2.7,4-4.2c1.4-1.8,2.3-3.9,3.4-5.9
		c4.5-8.3,11.7-14.9,19.6-20.1s16.6-9.1,25.2-12.9c4.6-2.1,9.3-4.1,14.3-4.9c2.5-0.4,5-0.5,7.6-0.5c4.2-0.1,8.4-0.2,12.6-0.3
		c4.1-0.1,8.4-0.2,12.2,1.3c0.6,0.2,1.3,0.6,1.7,1.1c0.7,0.9,0.6,2.1,0.4,3.1c-1.5,8.4-7.3,15.8-7.4,24.4c0,1.2,0.1,2.4,0.6,3.5
		c0.5,1,1.3,1.7,2,2.5c4.8,5.1,7.2,12.3,12.9,16.5c1.4,1.1,3,2,3.9,3.5c1.3,2.5-0.1,5.7-2.3,7.3c-2.3,1.6-5.2,2.1-7.9,2.3
		c-6,0.6-12,0.8-18,0.9c-14,0.4-28,0.8-42-0.6c-6.4-0.6-12.8-1.6-19.3-1.8c-5-0.2-10,0.1-15-0.6c-5-0.7-10-2.5-13.4-6.1"/>
	<path id="XMLID_78_" class="st10" d="M14.3,74.3c-1.6-2-0.4-5.2,1.8-6.5c2.2-1.3,4.9-1.3,7.4-1.2c8.4,0.2,16.8,0.5,25.2,0.7
		c2,0.1,4.1,0.1,6.1,0.4c1.7,0.3,3.4,0.8,5.1,1.1c10.3,1.9,20.7-1.9,31.1-2.7c15.6-1.2,31.5,4.6,46.6,0.8c1.9-0.5,3.8-1.1,5.8-1.2
		c5.1-0.2,9.8,3.2,12.2,7.6s2.7,9.8,2.2,14.8c-0.1,1-0.3,2-0.9,2.8c-0.6,0.9-1.7,1.4-2.7,1.8c-4.8,2.2-9.7,4.4-14.9,4.9
		c-4,0.4-8.1-0.2-12.1-0.6c-20.7-2-41.6,2-62.3,0.1c-7.6-0.7-15.2-2.2-22.9-1.4c-10.2,1-20.6,5.9-30.2,2.4c1.3-2.5,1.2-5.8-0.3-8.2
		c-1-1.7-2.6-3-3.2-4.9c-0.4-1.4-0.2-2.8,0.1-4.2c0.9-5.5,2.4-11.8,7.3-14.4"/>
	<path id="XMLID_77_" class="st11" d="M127.3,97.1c-20.7-2-41.7,2-62.5,0.1c-7.6-0.7-15.3-2.2-22.9-1.4c-3.7,0.4-7.4,1.2-11.2,2
		c0.1,2.3,0.3,4.6,0.6,7c3.5-0.8,7.1-1.6,10.6-1.9c7.6-0.7,15.3,0.7,22.9,1.4c20.8,1.9,41.7-2.1,62.5-0.1c0.8,0.1,1.6,0.1,2.3,0.2
		c0.3-2.3,0.5-4.7,0.5-7C129.2,97.2,128.2,97.2,127.3,97.1z"/>
	<path id="XMLID_76_" class="st12" d="M130.1,97.3c-0.1,2.4-0.2,4.7-0.5,7c3.3,0.3,6.6,0.7,9.8,0.4c0.8-0.1,1.6-0.3,2.4-0.4
		c-0.5-2.3-1.1-4.6-1.8-6.8c-0.2,0-0.4,0.1-0.7,0.1C136.3,98,133.2,97.7,130.1,97.3z"/>
	<path id="XMLID_74_" class="st12" d="M20.1,99.4c-0.5,1.8-1,3.7-1.3,5.6c0,0.1,0,0.2,0,0.2c-0.1,0.4-0.1,0.9-0.2,1.3
		c4.2,0.1,8.4-0.8,12.7-1.7c-0.3-2.3-0.5-4.6-0.6-7C27.2,98.6,23.6,99.3,20.1,99.4z"/>
	<path id="XMLID_5_" class="st13" d="M120.2,10.7c3.6-2,7.6-3.4,11.6-4.3c2.8-0.6,5.8-0.9,8.4,0.2c1.9,0.8,3.5,2.3,4.4,4.2
		c0.6,1.1,0.9,2.4,1,3.7c0.6,4.6-1.3,10-5.6,11.8c-3.4,1.4-7.3,0.3-10.8-0.8c-1-0.3-2-0.6-2.8-1.2c-1.1-0.7-1.8-1.9-2.4-3
		c-1.7-3.4-2-7.5-0.8-11.1"/>
</g>
<g id="eyes-brows">
	<g id="left">
		<path id="XMLID_10_" class="st3" d="M54.3,109.2c5.5-4.1,14.1-3.8,19.4,0.3c1.6,1.2,3.1-1.5,1.6-2.7c-6.1-4.7-16.3-4.9-22.6-0.3
			C51.2,107.8,52.7,110.4,54.3,109.2L54.3,109.2z"/>
	</g>
	<g id="right">
		<path id="XMLID_12_" class="st3" d="M88.2,109.2c5.5-4.1,14.1-3.8,19.4,0.3c1.6,1.2,3.1-1.5,1.6-2.7c-6.1-4.7-16.3-4.9-22.6-0.3
			C85.1,107.8,86.6,110.4,88.2,109.2L88.2,109.2z"/>
	</g>
</g>
<g id="closedEyes">
	<g id="XMLID_73_">
		<circle id="XMLID_70_" class="st1" cx="64" cy="121.1" r="6.6">
			<animate attributeName="cy" from="127.5" to="122" dur="3s" repeatCount="indefinite" />
		</circle>
		<g id="XMLID_71_">
			<circle id="XMLID_72_" class="st1" cx="97.9" cy="121.1" r="6.6">
			<animate attributeName="cy" from="127.5" to="122" dur="3s" repeatCount="indefinite" />
			</circle>
		</g>
	</g>
</g>
</svg>
